# xmcd
#
# Track frame offsets: 
#        150
#        23150
#        52392
#        82707
#        120850
#        148045
#        183520
#        211677
#        269922
#
# Disc length: 4028 seconds
#
# Revision: 3
# Processed by: cddbd v1.5.2PL0 Copyright (c) Steve Scherf et al.
# Submitted via: ExactAudioCopyFreeDBPlugin 1.0
#
DISCID=7c0fba09
DTITLE=Jam Session - Blues Jazz Rock Festival - Paks (HU)
DYEAR=1996
DGENRE=
TTITLE0=Kezeket fel
TTITLE1=Békés express blues
TTITLE2=No nézd csak
TTITLE3=Pick Up The Pieces
TTITLE4=Summertime
TTITLE5=Fever
TTITLE6=Paksi blues
TTITLE7=Blues In C
TTITLE8=Blues
EXTD=
EXTT0=
EXTT1=
EXTT2=
EXTT3=
EXTT4=
EXTT5=
EXTT6=
EXTT7=
EXTT8=
PLAYORDER=
